<?xml version="1.0" standalone="no"?>
<!DOCTYPE svg PUBLIC "-//W3C//DTD SVG 20010904//EN"
 "http://www.w3.org/TR/2001/REC-SVG-20010904/DTD/svg10.dtd">
<svg version="1.0" xmlns="http://www.w3.org/2000/svg"
 width="16.000000pt" height="16.000000pt" viewBox="0 0 16.000000 16.000000"
 preserveAspectRatio="xMidYMid meet">
<metadata>
Created by potrace 1.11, written by Peter Selinger 2001-2013
</metadata>
<g transform="translate(0.000000,16.000000) scale(0.003053,-0.003053)"
fill="#000000" stroke="none">
<path d="M3610 4105 c-330 -52 -607 -239 -812 -550 -111 -167 -180 -337 -213
-520 -32 -178 -18 -429 34 -605 80 -270 244 -509 436 -632 365 -236 811 -302
1187 -178 426 142 754 540 829 1009 13 84 12 289 -2 382 -52 352 -238 666
-519 880 -85 65 -263 153 -370 183 -163 46 -394 58 -570 31z m330 -137 c202
-43 430 -211 572 -422 103 -154 159 -288 200 -479 31 -148 31 -417 -1 -567
-46 -219 -118 -385 -223 -517 -102 -129 -246 -220 -413 -264 -109 -28 -286
-31 -370 -5 -169 51 -298 128 -426 255 -233 231 -352 548 -352 941 -1 302 87
561 268 789 86 109 242 220 365 260 92 29 265 34 380 9z"/>
<path d="M164 4054 c-4 -16 -1 -88 5 -111 1 -2 49 -3 109 -4 136 0 171 -12
197 -64 20 -39 20 -63 23 -1050 2 -555 0 -1020 -3 -1032 -9 -39 -42 -48 -190
-53 l-140 -5 0 -63 0 -63 948 -3 c678 -1 953 1 963 9 16 11 214 544 214 574 0
9 -19 27 -42 40 l-42 24 -20 -25 c-12 -14 -55 -72 -98 -129 -176 -240 -229
-286 -383 -335 -72 -23 -101 -26 -293 -31 -392 -10 -511 26 -559 171 -14 44
-17 113 -21 487 l-3 436 153 -4 c84 -2 198 -8 252 -13 148 -13 172 -37 215
-210 l28 -115 53 1 c28 1 56 6 61 11 6 6 5 56 -1 129 -6 65 -10 242 -9 392 2
177 -1 276 -8 283 -6 6 -34 9 -64 7 l-53 -3 -12 -80 c-21 -149 -49 -211 -104
-240 -36 -19 -149 -31 -362 -39 l-148 -6 0 506 0 507 323 -7 c177 -4 342 -12
367 -18 25 -6 77 -26 117 -45 84 -41 193 -148 337 -330 48 -62 93 -113 100
-113 15 0 76 38 76 47 0 5 -42 138 -93 296 l-92 288 -898 2 -898 2 -5 -21z"/>
</g>
</svg>
